<?xml version="1.0" encoding="UTF-8"?>
<svg width="14px" height="12px" viewBox="0 0 14 12" version="1.1" xmlns="http://www.w3.org/2000/svg" xmlns:xlink="http://www.w3.org/1999/xlink">
    <!-- Generator: Sketch 52.6 (67491) - http://www.bohemiancoding.com/sketch -->
    <title>chat</title>
    <desc>Created with Sketch.</desc>
    <g id="Page-1" stroke="none" stroke-width="1" fill="none" fill-rule="evenodd">
        <g id="Customer-Service-V3" transform="translate(-765.000000, -358.000000)" fill="#FFFFFF">
            <g id="Group-9" transform="translate(729.000000, 208.000000)">
                <g id="Group" transform="translate(21.000000, 138.000000)">
                    <path d="M25.1958042,12 C25.993011,12 26.6748223,12.2812472 27.2412587,12.84375 C27.8076951,13.4062528 28.0909091,14.0833294 28.0909091,14.875 L28.0909091,18.125 C28.0909091,18.9166706 27.8076951,19.5937472 27.2412587,20.15625 C26.6748223,20.7187528 25.993011,21 25.1958042,21 L22.6232517,21 L19.5944056,23.828125 C19.4632861,23.9427089 19.3164344,24 19.1538462,24 C19.0699297,24 18.9886368,23.9843752 18.909965,23.953125 C18.7945798,23.9010414 18.7014864,23.8229172 18.6306818,23.71875 C18.5598773,23.6145828 18.5244755,23.5000006 18.5244755,23.375 L18.5244755,21 L17.8951049,21 C17.0978981,21 16.4160867,20.7187528 15.8496503,20.15625 C15.283214,19.5937472 15,18.9166706 15,18.125 L15,14.875 C15,14.0833294 15.283214,13.4062528 15.8496503,12.84375 C16.4160867,12.2812472 17.0978981,12 17.8951049,12 L25.1958042,12 Z M27,17.961945 L27,14.7145877 C27,14.2670331 26.8349584,13.8845357 26.5048701,13.5670841 C26.1747819,13.2496325 25.7770586,13.0909091 25.3116883,13.0909091 L17.7792208,13.0909091 C17.3138505,13.0909091 16.9161272,13.2496325 16.586039,13.5670841 C16.2559507,13.8845357 16.0909091,14.2670331 16.0909091,14.7145877 L16.0909091,17.961945 C16.0909091,18.4094997 16.2559507,18.7919971 16.586039,19.1094487 C16.9161272,19.4269003 17.3138505,19.5856237 17.7792208,19.5856237 L19.7272727,19.5856237 L19.7272727,21.8181818 L22.137987,19.5856237 L25.3116883,19.5856237 C25.7770586,19.5856237 26.1747819,19.4269003 26.5048701,19.1094487 C26.8349584,18.7919971 27,18.4094997 27,17.961945 Z" id="chat"></path>
                </g>
            </g>
        </g>
    </g>
</svg>