<?xml version="1.0" encoding="UTF-8"?>
<svg width="15px" height="15px" viewBox="0 0 15 15" version="1.1" xmlns="http://www.w3.org/2000/svg" xmlns:xlink="http://www.w3.org/1999/xlink">
    <g id="Symbols" stroke="none" stroke-width="1" fill="none" fill-rule="evenodd">
        <g id="Layout/Header/Default" transform="translate(-862.000000, -23.000000)" fill="#004B78" fill-rule="nonzero">
            <g id="Top-Header">
                <g id="Searchbar" transform="translate(470.000000, 12.000000)">
                    <path d="M407,24.9332914 L405.933291,26 L401.959094,22.0258024 C400.84518,22.8942775 399.580246,23.3285085 398.164254,23.3285085 C397.346126,23.3285085 396.561048,23.1727517 395.808999,22.8612335 C395.05695,22.5497152 394.388297,22.1044711 393.803021,21.5254877 C393.224037,20.9465043 392.778793,20.2809981 392.467275,19.528949 C392.155757,18.7769 392,17.9886762 392,17.1642542 C392,16.3398323 392.155757,15.5516085 392.467275,14.7995595 C392.778793,14.0475104 393.224037,13.3820042 393.803021,12.8030208 C394.388297,12.2240374 395.05695,11.7787933 395.808999,11.467275 C396.561048,11.1557568 397.346126,11 398.164254,11 C398.988676,11 399.7769,11.1557568 400.528949,11.467275 C401.280998,11.7787933 401.946504,12.2240374 402.525488,12.8030208 C403.110764,13.3820042 403.559155,14.0475104 403.870673,14.7995595 C404.182192,15.5516085 404.337948,16.3398323 404.337948,17.1642542 C404.337948,18.5739529 403.900571,19.8388868 403.025802,20.9590938 L407,24.9332914 Z M394.860289,20.4587791 C395.772818,21.3713073 396.874128,21.8275645 398.164254,21.8275645 C399.45438,21.8275645 400.555691,21.3713073 401.468219,20.4587791 C402.374454,19.5525442 402.827565,18.4543803 402.827565,17.1642542 C402.827565,15.8804215 402.374454,14.779111 401.468219,13.8602895 C400.549398,12.9540546 399.448087,12.500944 398.164254,12.500944 C396.874128,12.500944 395.775964,12.9540546 394.869729,13.8602895 C393.957201,14.7728177 393.500944,15.8741282 393.500944,17.1642542 C393.500944,18.4543803 393.954055,19.5525442 394.860289,20.4587791 Z" id="s"></path>
                </g>
            </g>
        </g>
    </g>
</svg>
