<?xml version="1.0" encoding="UTF-8"?>
<svg width="16px" height="16px" viewBox="0 0 16 16" version="1.1" xmlns="http://www.w3.org/2000/svg" xmlns:xlink="http://www.w3.org/1999/xlink">
    <!-- Generator: sketchtool 53.2 (72643) - https://sketchapp.com -->
    <title>35559A8B-FA90-49FD-A377-B18C8FD39C88</title>
    <desc>Created with sketchtool.</desc>
    <g id="Final" stroke="none" stroke-width="1" fill="none" fill-rule="evenodd">
        <g id="USP-Bar---Colored-Icons" transform="translate(-155.000000, -116.000000)" fill="#0F9400">
            <g id="happiness" transform="translate(155.000000, 116.000000)">
                <path d="M7.99989189,0 C3.58875676,0 0,3.58875676 0,7.99989189 C0,12.411027 3.58875676,15.9997838 7.99989189,15.9997838 C12.411027,15.9997838 15.9997838,12.411027 15.9997838,7.99989189 C15.9997838,3.58875676 12.4110811,0 7.99989189,0 Z M7.99989189,15.1349189 C6.04005405,15.1349189 4.26243243,14.3405405 2.97162162,13.0570811 C2.45616216,12.5445405 2.01859459,11.9538378 1.67789189,11.3046486 C1.15902703,10.3160541 0.864864865,9.19172973 0.864864865,7.99989189 C0.864864865,4.06562162 4.06562162,0.864864865 7.99989189,0.864864865 C9.866,0.864864865 11.5667568,1.5852973 12.8395135,2.76227027 C13.4994054,3.37243243 14.0443243,4.10518919 14.4372432,4.92421622 C14.8842703,5.85605405 15.1349189,6.89924324 15.1349189,7.99989189 C15.1349189,11.9341622 11.9341622,15.1349189 7.99989189,15.1349189 Z" id="Shape"></path>
                <path d="M5.26540541,6.18378378 C5.73027027,6.18378378 6.10848649,6.54037838 6.10848649,7.02686486 L6.97335135,7.02686486 C6.97335135,6.05389189 6.20718919,5.31891892 5.26540541,5.31891892 C4.32362162,5.31891892 3.55745946,6.05389189 3.55745946,7.02686486 L4.42232432,7.02686486 C4.42232432,6.54037838 4.80059459,6.18378378 5.26540541,6.18378378 Z" id="Path"></path>
                <path d="M10.7342703,6.18378378 C11.1991351,6.18378378 11.5773514,6.54037838 11.5773514,7.02686486 L12.4422162,7.02686486 C12.4422162,6.05389189 11.6760541,5.31891892 10.7342703,5.31891892 C9.79248649,5.31891892 9.02632432,6.05389189 9.02632432,7.02686486 L9.89118919,7.02686486 C9.89118919,6.54037838 10.2694054,6.18378378 10.7342703,6.18378378 Z" id="Path"></path>
                <path d="M7.98459459,12.4321622 C9.65778378,12.4321622 11.2612973,11.5764865 12.1794054,10.1557838 L11.452973,9.68637838 C10.6099459,10.990973 9.06735135,11.7190811 7.52362162,11.5408649 C6.32027027,11.4021081 5.20745946,10.7088108 4.54675676,9.68637838 L3.82037838,10.1557838 C4.61983784,11.393027 5.96718919,12.2319459 7.42448649,12.4 C7.61156757,12.4216216 7.79837838,12.4321622 7.98459459,12.4321622 Z" id="Path"></path>
            </g>
        </g>
    </g>
</svg>