<?xml version="1.0" encoding="UTF-8"?>
<svg width="16px" height="16px" viewBox="0 0 16 16" version="1.1" xmlns="http://www.w3.org/2000/svg" xmlns:xlink="http://www.w3.org/1999/xlink">
    <!-- Generator: sketchtool 53.2 (72643) - https://sketchapp.com -->
    <title>9BB17D61-6152-4091-8893-F43401DCDDFA</title>
    <desc>Created with sketchtool.</desc>
    <g id="Final" stroke="none" stroke-width="1" fill="none" fill-rule="evenodd">
        <g id="USP-Bar---Colored-Icons" transform="translate(-537.000000, -116.000000)" fill="#0F9400">
            <g id="discount" transform="translate(537.000000, 116.000000)">
                <path d="M14.566786,8.20647471 C14.5026615,8.07526848 14.5026615,7.92479377 14.566786,7.79361868 L15.161214,6.57758755 C15.4921712,5.90051362 15.2299455,5.09350973 14.5642335,4.74029572 L13.3685914,4.10589883 C13.2395953,4.0374786 13.1511595,3.91570428 13.1259144,3.77192218 L12.8920778,2.43872374 C12.7618677,1.6964358 12.0752374,1.19763424 11.3291829,1.30319066 L9.98901167,1.49276265 C9.84435798,1.51318288 9.70132296,1.46667704 9.59638911,1.36516732 L8.62359533,0.424093385 C8.08192996,-0.099922179 7.23336965,-0.0999533074 6.69173541,0.424093385 L5.71891051,1.3652607 C5.61394553,1.46680156 5.47091051,1.51321401 5.32628794,1.49285603 L3.98611673,1.30328405 C3.23981323,1.19766537 2.55343191,1.69652918 2.42322179,2.43881712 L2.18938521,3.77195331 C2.16414008,3.91576654 2.07570428,4.03750973 1.9467393,4.10596109 L0.751097276,4.74035798 C0.085385214,5.09354086 -0.176840467,5.900607 0.154116732,6.57768093 L0.748513619,7.79368093 C0.812638132,7.92488716 0.812638132,8.07536187 0.748513619,8.20653696 L0.154085603,9.42253696 C-0.176871595,10.0996109 0.0853540856,10.9066148 0.751066148,11.2598288 L1.94670817,11.8942257 C2.07570428,11.9626459 2.16414008,12.0844202 2.18938521,12.2282023 L2.42322179,13.5614008 C2.54175875,14.2371362 3.12118288,14.711035 3.78711284,14.7109728 C3.85270039,14.7109728 3.91925292,14.7063658 3.98614786,14.6969027 L5.32631907,14.5073307 C5.47084825,14.4868171 5.61397665,14.5334163 5.71894163,14.6349261 L6.69173541,15.576 C6.96261479,15.8380389 7.31007004,15.9690272 7.65764981,15.9689961 C8.00513619,15.968965 8.35280934,15.8379767 8.6235642,15.576 L9.59638911,14.6349261 C9.70135409,14.5334163 9.84442023,14.487035 9.98901167,14.5073307 L11.3291829,14.6969027 C12.0755798,14.8024903 12.7618677,14.3036576 12.8920778,13.5613696 L13.1259455,12.2282335 C13.1511907,12.0844202 13.2396265,11.962677 13.3685914,11.8942257 L14.5642335,11.2598288 C15.2299455,10.9066459 15.4921712,10.0995798 15.161214,9.42250584 L14.566786,8.20647471 Z M14.1333852,10.4477821 L12.9377432,11.082179 C12.5565447,11.2844825 12.2950973,11.6442646 12.2205447,12.0693541 L11.9867082,13.4025214 C11.9426615,13.6536654 11.7104747,13.8223502 11.45793,13.7867082 L10.1177588,13.5971362 C9.69036576,13.5365914 9.26745525,13.6741479 8.9572607,13.9741946 L7.9844358,14.9152374 C7.80121401,15.0924825 7.51411673,15.0924825 7.33083268,14.9152374 L6.35803891,13.9741634 C6.09587549,13.7205603 5.75315175,13.5831284 5.39536187,13.5831284 C5.32980545,13.5831284 5.26371984,13.5877354 5.19754086,13.5971051 L3.85736965,13.786677 C3.6050428,13.8223502 3.37266926,13.6536342 3.32859144,13.4024903 L3.09472374,12.0692918 C3.02014008,11.6442023 2.75872374,11.2843891 2.37749416,11.0821479 L1.18185214,10.447751 C0.956607004,10.328249 0.867891051,10.0552218 0.979859922,9.82614786 L1.57428794,8.61011673 C1.76379767,8.22238132 1.76379767,7.77768093 1.57428794,7.38994553 L0.979859922,6.1739144 C0.867891051,5.94484047 0.956607004,5.67181323 1.18185214,5.55231128 L2.37749416,4.9179144 C2.75869261,4.71561089 3.02014008,4.35582879 3.09469261,3.9307393 L3.32852918,2.59757198 C3.372607,2.34642802 3.60476265,2.17771206 3.85730739,2.21338521 L5.1974786,2.4029572 C5.62471595,2.46343969 6.0477821,2.32594553 6.35797665,2.02589883 L7.33080156,1.0848249 C7.51402335,0.907579767 7.80112062,0.907579767 7.98440467,1.0848249 L8.95719844,2.02589883 C9.267393,2.32597665 9.69039689,2.46343969 10.1176965,2.4029572 L11.4578677,2.21338521 C11.7102257,2.17768093 11.9425992,2.34642802 11.9866459,2.59757198 L12.2204825,3.93077043 C12.2950661,4.35585992 12.5564825,4.71567315 12.9377121,4.9179144 L14.1333541,5.55231128 C14.3585992,5.67181323 14.4473152,5.94484047 14.3353463,6.1739144 L13.7409183,7.3899144 C13.5514086,7.77761868 13.5514086,8.22238132 13.7409183,8.6100856 L14.3353463,9.8260856 C14.4473463,10.0552218 14.3586304,10.3282802 14.1333852,10.4477821 Z" id="Shape"></path>
                <path d="M11.0159066,4.64174319 C10.8364514,4.46225681 10.5454008,4.46225681 10.3659144,4.64174319 L4.29933074,10.708358 C4.11984436,10.8878444 4.11984436,11.1788638 4.29933074,11.3583502 C4.38907393,11.4480934 4.50670817,11.4929805 4.62431128,11.4929805 C4.7419144,11.4929805 4.85957977,11.4481245 4.94929183,11.3583502 L11.0158755,5.29176654 C11.1954241,5.11224903 11.1954241,4.8212607 11.0159066,4.64174319 Z" id="Path"></path>
                <path d="M5.8191751,3.86353307 C4.88992996,3.86353307 4.1339144,4.61954864 4.1339144,5.54879377 C4.1339144,6.47803891 4.88992996,7.23405447 5.8191751,7.23405447 C6.74842023,7.23405447 7.5044358,6.47803891 7.5044358,5.54879377 C7.5044358,4.61954864 6.74842023,3.86353307 5.8191751,3.86353307 Z M5.8191751,6.31480156 C5.39679377,6.31480156 5.05316732,5.9711751 5.05316732,5.54876265 C5.05316732,5.12638132 5.39679377,4.78275486 5.8191751,4.78275486 C6.24155642,4.78275486 6.58521401,5.12638132 6.58521401,5.54876265 C6.58518288,5.9711751 6.24155642,6.31480156 5.8191751,6.31480156 Z" id="Shape"></path>
                <path d="M9.49606226,8.76607004 C8.56681712,8.76607004 7.81080156,9.5220856 7.81080156,10.4513307 C7.81080156,11.3805759 8.56681712,12.1365914 9.49606226,12.1365914 C10.4253074,12.1365914 11.181323,11.3805759 11.181323,10.4513307 C11.181323,9.5220856 10.4253074,8.76607004 9.49606226,8.76607004 Z M9.49606226,11.2173385 C9.07368093,11.2173385 8.73002335,10.8737121 8.73002335,10.4513307 C8.73002335,10.0289494 9.07364981,9.68532296 9.49606226,9.68532296 C9.91844358,9.68532296 10.26207,10.0289494 10.26207,10.4513307 C10.26207,10.8737121 9.91844358,11.2173385 9.49606226,11.2173385 Z" id="Shape"></path>
            </g>
        </g>
    </g>
</svg>