<?xml version="1.0" encoding="UTF-8"?>
<svg width="16px" height="16px" viewBox="0 0 16 16" version="1.1" xmlns="http://www.w3.org/2000/svg" xmlns:xlink="http://www.w3.org/1999/xlink">
    <!-- Generator: sketchtool 53.2 (72643) - https://sketchapp.com -->
    <title>34EE2378-148C-4F46-88AC-B74494DF1BA2</title>
    <desc>Created with sketchtool.</desc>
    <g id="Final" stroke="none" stroke-width="1" fill="none" fill-rule="evenodd">
        <g id="USP-Bar---Colored-Icons" transform="translate(-375.000000, -116.000000)" fill="#0F9400">
            <g id="like" transform="translate(375.000000, 116.000000)">
                <path d="M15.0839248,10.8592902 C15.4112735,10.4417537 15.5682672,9.99415449 15.5482255,9.53319415 C15.5281837,9.02546973 15.3010438,8.62797495 15.1139875,8.38413361 C15.3311065,7.84300626 15.4146138,6.99123173 14.6897704,6.32985386 C14.1586639,5.84551148 13.256785,5.62839248 12.0075157,5.68851775 C11.1290188,5.72860125 10.3941545,5.89227557 10.3640919,5.89895616 L10.3607516,5.89895616 C10.193737,5.92901879 10.0167015,5.965762 9.83632568,6.00584551 C9.82296451,5.79206681 9.85970772,5.26096033 10.2538622,4.0651357 C10.7215031,2.64217119 10.6947808,1.55323591 10.1670146,0.825052192 C9.6125261,0.060125261 8.72734864,5.68434189e-14 8.46680585,5.68434189e-14 C8.21628392,5.68434189e-14 7.98580376,0.103549061 7.82212944,0.29394572 C7.45135699,0.724843424 7.49478079,1.51983299 7.54154489,1.88726514 C7.1006263,3.0697286 5.86471816,5.9691023 4.81920668,6.77411273 C4.79916493,6.7874739 4.78246347,6.80417537 4.765762,6.82087683 C4.45845511,7.14488518 4.25135699,7.49561587 4.11106472,7.80292276 C3.91398747,7.6960334 3.69018789,7.63590814 3.44968685,7.63590814 L1.41210856,7.63590814 C0.643841336,7.63590814 0.0225469729,8.2605428 0.0225469729,9.02546973 L0.0225469729,14.4534447 C0.0225469729,15.2217119 0.647181628,15.8430063 1.41210856,15.8430063 L3.44968685,15.8430063 C3.74697286,15.8430063 4.02421712,15.7494781 4.25135699,15.5891441 L5.03632568,15.6826722 C5.1565762,15.6993737 7.29436326,15.9699374 9.48893528,15.9265136 C9.88643006,15.9565762 10.2605428,15.9732777 10.6079332,15.9732777 C11.2058455,15.9732777 11.7269311,15.9265136 12.1611691,15.8329854 C13.1832985,15.6158664 13.8814196,15.1816284 14.2354906,14.5436326 C14.5060543,14.0559499 14.5060543,13.5716075 14.4626305,13.2643006 C15.1273486,12.663048 15.2442589,11.9983299 15.2208768,11.5306889 C15.2075157,11.2601253 15.1473904,11.0296451 15.0839248,10.8592902 Z M1.41210856,14.9411273 C1.14154489,14.9411273 0.924425887,14.7206681 0.924425887,14.4534447 L0.924425887,9.02212944 C0.924425887,8.75156576 1.14488518,8.53444676 1.41210856,8.53444676 L3.44968685,8.53444676 C3.72025052,8.53444676 3.93736952,8.75490605 3.93736952,9.02212944 L3.93736952,14.4501044 C3.93736952,14.7206681 3.71691023,14.9377871 3.44968685,14.9377871 L1.41210856,14.9377871 L1.41210856,14.9411273 Z M14.22881,10.468476 C14.0885177,10.6154489 14.0617954,10.8392484 14.1686848,11.0129436 C14.1686848,11.0162839 14.3056367,11.2501044 14.3223382,11.5707724 C14.3457203,12.0083507 14.1352818,12.3958246 13.6943633,12.7265136 C13.5373695,12.8467641 13.473904,13.0538622 13.5407098,13.2409186 C13.5407098,13.2442589 13.6843424,13.6851775 13.4505219,14.102714 C13.2267223,14.5035491 12.7290188,14.7908142 11.9741127,14.9511482 C11.3695198,15.0814196 10.5478079,15.1048017 9.53903967,15.0246347 C9.5256785,15.0246347 9.50897704,15.0246347 9.49227557,15.0246347 C7.34446764,15.0713987 5.17327766,14.7908142 5.14989562,14.7874739 L5.14655532,14.7874739 L4.8091858,14.7473904 C4.82922756,14.6538622 4.83924843,14.5536534 4.83924843,14.4534447 L4.83924843,9.02212944 C4.83924843,8.87849687 4.81586639,8.73820459 4.77578288,8.60793319 C4.83590814,8.38413361 5.00292276,7.88643006 5.39707724,7.46221294 C6.89686848,6.27306889 8.36325678,2.26137787 8.42672234,2.08768267 C8.45344468,2.01753653 8.46012526,1.94070981 8.44676409,1.86388309 C8.38997912,1.48977035 8.41002088,1.03215031 8.49018789,0.89519833 C8.66722338,0.898538622 9.14488518,0.948643006 9.43215031,1.34613779 C9.77286013,1.817119 9.75949896,2.65887265 9.39206681,3.77453027 C8.8308977,5.47473904 8.78413361,6.36993737 9.22839248,6.76409186 C9.44885177,6.9611691 9.74279749,6.97118998 9.9565762,6.89436326 C10.160334,6.84759916 10.354071,6.80751566 10.5377871,6.77745303 C10.5511482,6.77411273 10.5678497,6.77077244 10.5812109,6.76743215 C11.6066806,6.54363257 13.4438413,6.40668058 14.0818372,6.98789144 C14.6229645,7.4822547 14.2388309,8.13695198 14.1954071,8.20709812 C14.0718163,8.39415449 14.1085595,8.63799582 14.2755741,8.78830898 C14.2789144,8.79164927 14.6296451,9.1223382 14.6463466,9.56659708 C14.6597077,9.86388309 14.5194154,10.1678497 14.22881,10.468476 Z" id="Shape"></path>
            </g>
        </g>
    </g>
</svg>