<?xml version="1.0" encoding="UTF-8"?>
<svg width="13px" height="16px" viewBox="0 0 13 16" version="1.1" xmlns="http://www.w3.org/2000/svg" xmlns:xlink="http://www.w3.org/1999/xlink">
    <!-- Generator: sketchtool 53.2 (72643) - https://sketchapp.com -->
    <title>7973B5D2-8924-4EE4-B526-22DD6D1F37AD</title>
    <desc>Created with sketchtool.</desc>
    <g id="Final" stroke="none" stroke-width="1" fill="none" fill-rule="evenodd">
        <g id="USP-Bar---Colored-Icons" transform="translate(-727.000000, -116.000000)" fill="#0F9400">
            <g id="headset" transform="translate(727.000000, 116.000000)">
                <path d="M12.265625,6.13085937 C12.265625,2.75036622 9.51794434,0 6.140625,0 C2.76330566,0 0.015625,2.75036622 0.015625,6.13085937 L0.015625,9.50939941 C0.015625,10.9407959 1.17919922,12.1053467 2.609375,12.1053467 C2.86828613,12.1053467 3.078125,11.8953857 3.078125,11.6365967 L3.078125,7.38220216 C3.078125,7.123291 2.86828613,6.91345216 2.609375,6.91345216 C1.98022462,6.91345216 1.40270997,7.138916 0.953125,7.51330566 L0.953125,6.13085937 C0.953125,3.26721191 3.28027344,0.9375 6.140625,0.9375 C9.00097656,0.9375 11.328125,3.26721191 11.328125,6.13085937 L11.328125,7.51330566 C10.87854,7.138916 10.3010254,6.91345216 9.671875,6.91345216 C9.41296387,6.91345216 9.203125,7.123291 9.203125,7.38220216 L9.203125,11.6365967 C9.203125,11.8953857 9.41296388,12.1053467 9.671875,12.1053467 C10.2845459,12.1053467 10.8479004,11.8911133 11.2921143,11.5343017 C11.0471191,13.3730469 9.56921388,14.8272705 7.71948244,15.0363769 C7.73925781,14.9487305 7.75,14.857666 7.75,14.7640381 C7.75,14.083374 7.19628906,13.5296631 6.515625,13.5296631 L5.765625,13.5296631 C5.08496094,13.5296631 4.53125,14.083374 4.53125,14.765625 C4.53125,15.4462891 5.08496094,16 5.765625,16 L7.25964356,16 C10.0198975,16 12.265625,13.7542725 12.265625,10.9940186 L12.265625,6.13085937 Z M2.140625,7.91857909 L2.140625,11.1002197 C1.45495606,10.8972168 0.953125,10.2608643 0.953125,9.50939941 C0.953125,8.75793456 1.45495606,8.12145997 2.140625,7.91857909 L2.140625,7.91857909 Z M6.140625,15.0625 L5.765625,15.0625 C5.60473631,15.0625 5.46875,14.9265137 5.46875,14.7640381 C5.46875,14.6031494 5.60473631,14.4671631 5.765625,14.4671631 L6.515625,14.4671631 C6.67651369,14.4671631 6.8125,14.6031494 6.8125,14.765625 C6.8125,14.9265137 6.67651369,15.0625 6.515625,15.0625 L6.140625,15.0625 Z M10.140625,11.1002197 L10.140625,7.91857909 C10.8262939,8.12158203 11.328125,8.75793456 11.328125,9.50939941 C11.328125,10.2608643 10.8262939,10.8972168 10.140625,11.1002197 Z" id="Shape"></path>
            </g>
        </g>
    </g>
</svg>